<?xml version="1.0" standalone="no"?>
<!DOCTYPE svg PUBLIC "-//W3C//DTD SVG 20010904//EN"
 "http://www.w3.org/TR/2001/REC-SVG-20010904/DTD/svg10.dtd">
<svg version="1.0" xmlns="http://www.w3.org/2000/svg"
 width="470.000000pt" height="470.000000pt" viewBox="0 0 470.000000 470.000000"
 preserveAspectRatio="xMidYMid meet">
<metadata>
Created by potrace 1.11, written by Peter Selinger 2001-2013
</metadata>
<g transform="translate(0.000000,470.000000) scale(0.100000,-0.100000)"
fill="#000000" stroke="none">
<path d="M0 2350 l0 -2350 2350 0 2350 0 0 2350 0 2350 -2350 0 -2350 0 0
-2350z m2570 889 c0 -493 1 -531 17 -525 9 4 225 132 479 286 l462 278 106
-186 c80 -143 102 -190 93 -198 -7 -6 -228 -127 -492 -269 -264 -142 -483
-261 -487 -264 -5 -4 210 -126 477 -271 267 -144 493 -268 501 -275 15 -10 3
-34 -91 -197 l-107 -186 -429 259 c-237 143 -448 271 -469 284 -22 14 -44 25
-50 25 -7 0 -10 -176 -10 -530 l0 -530 -215 0 -215 0 0 531 c0 421 -3 530 -12
526 -7 -2 -219 -129 -472 -281 -252 -153 -463 -275 -470 -273 -6 3 -49 72 -95
153 -47 82 -93 163 -103 180 l-19 32 458 247 c252 137 479 260 505 275 l48 27
-500 269 c-275 148 -500 273 -500 278 0 15 195 358 206 363 6 2 218 -120 470
-273 252 -152 464 -279 471 -281 10 -4 13 99 13 526 l0 531 215 0 215 0 0
-531z"/>
</g>
</svg>
